<svg version="1" xmlns="http://www.w3.org/2000/svg" width="933.333" height="933.333" viewBox="0 0 700.000000 700.000000"><path d="M329.8.5c-.2.1-4.1.5-8.8.9-10 .7-22.5 2.2-29.5 3.6-2.7.5-6.1 1.2-7.5 1.4-43.1 7.9-90.8 27.3-127.5 51.9-6.9 4.6-29.7 21.7-30.5 22.8-.3.3-2.5 2.3-5 4.4-8.5 7-21.6 20.1-36.1 36.1-16.7 18.4-38.3 51.6-51.3 78.9-9.5 19.8-20.1 50.1-24.2 68.8-2 9-5.3 27.2-5.9 32.2-.4 3.3-.9 6.9-1.1 8-1.8 9.8-2.5 57-1 71.5.7 7.7 2.4 20.5 3.1 25 .6 3.2 2.4 12.9 2.9 15.5 4.8 24.4 15.6 56.2 27.3 80.2 44.9 92.8 127.9 161.1 227 186.8 7.2 1.9 14.2 3.6 15.5 3.9 1.3.2 5 .9 8.3 1.5 3.3.6 7.1 1.3 8.5 1.6 1.4.3 5.2.8 8.5 1.1 3.3.3 6.3.8 6.6.9 1.5 1 22.7 2 40.9 2 18.8 0 34.1-.8 43-2.1 14.4-2.1 29.5-4.8 34.5-6.1 3.3-.8 6.7-1.6 7.5-1.8 10.9-2.2 38.8-11.7 54.9-18.7 12.1-5.3 30.8-14.8 35.3-17.9 1.4-1.1 2.9-1.9 3.3-1.9 2.4 0 38.3-25.7 49.5-35.5 11.9-10.4 29.4-27.9 36.5-36.5 2.1-2.5 4.1-4.7 4.4-5 .4-.3 4.5-5.5 9.1-11.5 33.2-43.6 54.7-91.5 65.4-145.6 1.4-7 2.8-15.5 3.2-19 .3-3.5.8-6.7 1-7 .9-1.7 1.9-21.4 1.8-39.9 0-18.8-.6-33.1-1.9-42-.3-1.9-.7-5.6-1-8.1-.3-2.5-.7-5.4-.9-6.5-.2-1-1.1-6-2.1-10.9-9.8-52.5-33.7-105.2-67-148-4.3-5.5-8.1-10.2-8.4-10.5-.4-.3-3.1-3.4-6.1-6.9-11.1-12.9-29.1-29.9-45-42.6-41.4-33-92.4-56.9-144.7-67.9-9.9-2.1-24.4-4.4-39.3-6.1-5.5-.7-52.6-1.6-53.2-1zm-24.8 167c7.1 1 10.3 1.5 12.4 2 1.2.3 3.2.7 4.6.9 4.5.7 22.4 5.5 28 7.4 3 1.1 5.7 1.9 6 1.9.6-.1 4.4 1.3 25 9 8 3 15.4 5.9 16.5 6.4 1.1.5 6 2.5 11 4.4l8.9 3.5 4.6-4.4c16.9-16.2 35.1-26.4 53.5-30 1.7-.3 4.4-.8 6-1.2 5.1-1 26.1-1.2 30.6-.3 7.5 1.4 8.3 1.7 12.9 3.5 6.5 2.5 15 8.8 18.8 13.8 7.8 10.5 9.3 25.5 3.5 37.8-11.2 23.9-43.2 36.6-81.3 32.3-5.5-.6-26.6-5.6-33.5-7.9-1.7-.6-2.6.2-5.3 5.1-14.1 25.1-27.2 61.6-38.8 108.3-.2.8-1.7 7.1-3.5 14-1.7 6.9-5.3 21.3-7.9 32-6.8 27.3-10.9 43.1-12 46-.4 1.4-1.6 5.2-2.6 8.5-16.1 56.2-37.4 90.8-63.9 104.3-13.2 6.8-32.6 9.6-40.3 6-8.7-4.1-12.3-15.1-7.9-23.9 3.1-6.1 8.6-9.6 16.4-10.4 7.4-.7 8.2-.9 15.1-4.2 7-3.4 15.8-12.4 21.9-22.5 13.2-21.7 22.5-49.3 39.1-116.3 8.4-33.9 13.7-54.3 17.3-66.5 11.8-40 19.9-62.2 30-82.2l5.9-11.7-17.8-6.9c-34.8-13.6-52.2-18.9-75.2-22.7-7.9-1.3-29.7-1.2-37.3.1-27.7 5-52.4 23.8-61.5 46.9-4.8 12.3-6.3 28.2-3.8 39.8 1.1 4.8 4.6 13 7.8 17.9 14.2 22.3 48.9 31.1 71.5 18.2 11.3-6.5 17.2-17.5 18.8-34.9 1-11.3 5.2-17.5 13.6-19.9 9.2-2.7 19.3 3 21.6 12.1 2.2 8.9-.7 28.4-6.3 41-5.3 12-15.4 23.9-26.4 31.1-6.8 4.4-19 9.6-25 10.6-1.9.3-4.8.8-6.4 1.1-15.4 3-41.8-1.3-57.1-9.3-23.3-12.2-38.4-30.4-45.1-54.2-3.1-10.8-3.9-18-3.8-31 .4-39.3 23.8-74.8 61.9-93.8 10.7-5.3 28.5-10.6 39.9-11.8 2.8-.3 5.3-.8 5.5-1 .5-.5 29.7.4 34.1 1.1z"/><path d="M490.5 202.6c-.5.1-4.4 1-8.5 1.9-7.5 1.7-13.9 4.5-21.5 9.3l-4 2.5 5.5 1.4c8.4 2.1 24.3 2.4 32.4.7 11.5-2.4 22.7-9.9 19.4-12.9-2.4-2.2-7.4-3.3-14.9-3.2-4.1 0-7.8.1-8.4.3z"/></svg>