<?xml version="1.0" encoding="UTF-8"?>
<svg width="425px" height="425px" viewBox="0 0 425 425" version="1.1" xmlns="http://www.w3.org/2000/svg" xmlns:xlink="http://www.w3.org/1999/xlink">
    <!-- Generator: Sketch 52.5 (67469) - http://www.bohemiancoding.com/sketch -->
    <title>earth-square</title>
    <desc>Created with Sketch.</desc>
    <defs>
        <linearGradient x1="-1%" y1="0%" x2="100%" y2="100%" id="linearGradient-1">
            <stop stop-color="#8A52ED" offset="0%"></stop>
            <stop stop-color="#12CD53" offset="100%"></stop>
        </linearGradient>
        <rect id="path-2" x="0" y="0" width="425" height="425"></rect>
        <linearGradient x1="61.5124538%" y1="59.7822819%" x2="16.2689406%" y2="4.05547152%" id="linearGradient-4">
            <stop stop-color="#000000" stop-opacity="0" offset="0%"></stop>
            <stop stop-color="#000000" offset="100%"></stop>
        </linearGradient>
        <path d="M308.395272,96 C329.586771,96 339.086408,108.057232 339.086408,119.383722 C339.086408,127.787247 334.336589,135.460031 326.298435,140.940591 C318.26028,146.421151 307.664531,148.978746 295.241929,148.978746 C285.01155,148.978746 274.415801,146.421151 262.72394,142.402074 C247.013002,166.881908 237.878735,203.418974 229.109839,239.590669 C214.860384,298.049975 201.341669,352.855573 157.862561,352.855573 C152.747372,352.855573 148.728294,348.836496 148.728294,343.721307 C148.728294,338.606118 152.747372,334.22167 157.862561,334.22167 C186.726843,334.22167 198.418704,286.358113 210.841306,235.206221 C219.610202,200.496009 228.744469,162.862831 244.820778,135.825402 C242.993924,135.094661 240.801701,133.998549 238.609477,133.267807 C215.591125,124.133541 191.842032,114.633904 169.189051,114.633904 C142.151623,114.633904 119.133271,130.710213 114.018082,154.093935 C110.729746,166.881908 113.28734,179.30451 120.594754,188.804147 C127.902167,197.938414 138.863287,203.053603 152.01663,203.053603 C165.535345,203.053603 181.246283,195.015449 181.246283,172.727838 C181.246283,167.612649 185.630731,163.228201 190.74592,163.228201 C195.861109,163.228201 199.880187,167.612649 199.880187,172.727838 C199.880187,201.592121 180.150171,221.687507 152.01663,221.687507 C133.382727,221.687507 116.941047,213.649352 105.979927,200.496009 C95.3841781,186.611923 91.3651009,168.343391 95.7495488,149.709487 C103.056962,117.92224 133.382727,96 169.189051,96 C195.495739,96 222.167797,106.595749 245.551519,116.095386 C249.205226,117.556869 252.858932,119.018352 256.147268,120.114464 C269.300612,105.134266 286.107662,96 308.395272,96 Z M308.395272,114.633904 C295.241929,114.633904 284.64618,119.018352 275.877284,127.056506 C282.819326,129.24873 289.395998,130.710213 295.241929,130.710213 C303.645454,130.710213 310.952867,128.883359 315.702686,125.595023 C318.991022,123.402799 320.452504,120.845205 320.452504,119.383722 C320.452504,117.191498 316.068056,114.633904 308.395272,114.633904 Z" id="path-5"></path>
        <filter x="-5.5%" y="-5.3%" width="112.6%" height="112.1%" filterUnits="objectBoundingBox" id="filter-6">
            <feMorphology radius="4.5" operator="dilate" in="SourceAlpha" result="shadowSpreadOuter1"></feMorphology>
            <feOffset dx="2" dy="2" in="shadowSpreadOuter1" result="shadowOffsetOuter1"></feOffset>
            <feGaussianBlur stdDeviation="2" in="shadowOffsetOuter1" result="shadowBlurOuter1"></feGaussianBlur>
            <feComposite in="shadowBlurOuter1" in2="SourceAlpha" operator="out" result="shadowBlurOuter1"></feComposite>
            <feColorMatrix values="0 0 0 0 0   0 0 0 0 0   0 0 0 0 0  0 0 0 0.187301857 0" type="matrix" in="shadowBlurOuter1"></feColorMatrix>
        </filter>
    </defs>
    <g id="earth-square" stroke="none" stroke-width="1" fill="none" fill-rule="evenodd">
        <g id="square">
            <g id="bg2" fill="url(#linearGradient-1)">
                <rect id="bg" x="0" y="0" width="425" height="425"></rect>
            </g>
            <g id="square-shadow">
                <mask id="mask-3" fill="white">
                    <use xlink:href="#path-2"></use>
                </mask>
                <g id="Mask"></g>
                <g opacity="0.355096726" mask="url(#mask-3)" fill="url(#linearGradient-4)" id="Combined-Shape">
                    <g transform="translate(105.000000, 100.000000)">
                        <path d="M220.425264,16.9985655 C222.30098,15.5311943 224.225731,13.9776214 226.199517,12.3378469 L503,400.410448 L438.714311,435.655832 L368.171067,486.728953 L360.420634,478.58126 L339.593466,490 L51.7278102,250.781469 C69.8113077,230.546946 82.9242172,212.093462 91.0665388,195.421019 L0.606213135,100.324015 L0.606213135,44.4840981 L30.2821291,0.45351854 C82.3570261,1.30818078 117.245186,7.20987348 134.94661,18.1585967 C137.824909,19.9388885 143.430208,24.7342689 151.762508,32.5447378 C157.897339,33.8717375 163.451797,34.8205817 168.425881,35.3912707 L156.549193,27.1664748 L211.735984,4.29771309 L220.425264,16.9985655 Z M197.116011,32.0274144 L173.344282,35.8453746 C179.273301,36.2483763 184.227801,36.0164089 188.207783,35.1494724 C190.921453,34.5583692 193.890861,33.5176837 197.116007,32.027416 Z"></path>
                    </g>
                </g>
            </g>
        </g>
        <g id="T">
            <use fill="black" fill-opacity="1" filter="url(#filter-6)" xlink:href="#path-5"></use>
            <use fill="#FFFFFF" fill-rule="evenodd" xlink:href="#path-5"></use>
        </g>
    </g>
</svg>