<?xml version="1.0" encoding="UTF-8"?>
<svg width="500px" height="500px" viewBox="0 0 500 500" version="1.1" xmlns="http://www.w3.org/2000/svg" xmlns:xlink="http://www.w3.org/1999/xlink">
    <!-- Generator: Sketch 52.5 (67469) - http://www.bohemiancoding.com/sketch -->
    <title>synthwave-round</title>
    <desc>Created with Sketch.</desc>
    <defs>
        <circle id="path-1" cx="225" cy="225" r="225"></circle>
        <linearGradient x1="-1%" y1="0%" x2="100%" y2="100%" id="linearGradient-3">
            <stop stop-color="#81FFEF" offset="0%"></stop>
            <stop stop-color="#F067B4" offset="100%"></stop>
        </linearGradient>
        <circle id="path-4" cx="225" cy="225" r="225"></circle>
        <linearGradient x1="61.5124538%" y1="59.7822819%" x2="16.2689406%" y2="4.05547152%" id="linearGradient-6">
            <stop stop-color="#000000" stop-opacity="0" offset="0%"></stop>
            <stop stop-color="#000000" offset="100%"></stop>
        </linearGradient>
        <path d="M346.395272,134 C367.586771,134 377.086408,146.057232 377.086408,157.383722 C377.086408,165.787247 372.336589,173.460031 364.298435,178.940591 C356.26028,184.421151 345.664531,186.978746 333.241929,186.978746 C323.01155,186.978746 312.415801,184.421151 300.72394,180.402074 C285.013002,204.881908 275.878735,241.418974 267.109839,277.590669 C252.860384,336.049975 239.341669,390.855573 195.862561,390.855573 C190.747372,390.855573 186.728294,386.836496 186.728294,381.721307 C186.728294,376.606118 190.747372,372.22167 195.862561,372.22167 C224.726843,372.22167 236.418704,324.358113 248.841306,273.206221 C257.610202,238.496009 266.744469,200.862831 282.820778,173.825402 C280.993924,173.094661 278.801701,171.998549 276.609477,171.267807 C253.591125,162.133541 229.842032,152.633904 207.189051,152.633904 C180.151623,152.633904 157.133271,168.710213 152.018082,192.093935 C148.729746,204.881908 151.28734,217.30451 158.594754,226.804147 C165.902167,235.938414 176.863287,241.053603 190.01663,241.053603 C203.535345,241.053603 219.246283,233.015449 219.246283,210.727838 C219.246283,205.612649 223.630731,201.228201 228.74592,201.228201 C233.861109,201.228201 237.880187,205.612649 237.880187,210.727838 C237.880187,239.592121 218.150171,259.687507 190.01663,259.687507 C171.382727,259.687507 154.941047,251.649352 143.979927,238.496009 C133.384178,224.611923 129.365101,206.343391 133.749549,187.709487 C141.056962,155.92224 171.382727,134 207.189051,134 C233.495739,134 260.167797,144.595749 283.551519,154.095386 C287.205226,155.556869 290.858932,157.018352 294.147268,158.114464 C307.300612,143.134266 324.107662,134 346.395272,134 Z M346.395272,152.633904 C333.241929,152.633904 322.64618,157.018352 313.877284,165.056506 C320.819326,167.24873 327.395998,168.710213 333.241929,168.710213 C341.645454,168.710213 348.952867,166.883359 353.702686,163.595023 C356.991022,161.402799 358.452504,158.845205 358.452504,157.383722 C358.452504,155.191498 354.068056,152.633904 346.395272,152.633904 Z" id="path-7"></path>
        <filter x="-5.5%" y="-5.3%" width="112.6%" height="112.1%" filterUnits="objectBoundingBox" id="filter-8">
            <feMorphology radius="4.5" operator="dilate" in="SourceAlpha" result="shadowSpreadOuter1"></feMorphology>
            <feOffset dx="2" dy="2" in="shadowSpreadOuter1" result="shadowOffsetOuter1"></feOffset>
            <feGaussianBlur stdDeviation="2" in="shadowOffsetOuter1" result="shadowBlurOuter1"></feGaussianBlur>
            <feComposite in="shadowBlurOuter1" in2="SourceAlpha" operator="out" result="shadowBlurOuter1"></feComposite>
            <feColorMatrix values="0 0 0 0 0   0 0 0 0 0   0 0 0 0 0  0 0 0 0.187301857 0" type="matrix" in="shadowBlurOuter1"></feColorMatrix>
        </filter>
    </defs>
    <g id="synthwave-round" stroke="none" stroke-width="1" fill="none" fill-rule="evenodd">
        <g id="disk" transform="translate(25.000000, 25.000000)">
            <g id="disk-bg">
                <mask id="mask-2" fill="white">
                    <use xlink:href="#path-1"></use>
                </mask>
                <g id="Mask"></g>
                <g id="bg3" mask="url(#mask-2)" fill="url(#linearGradient-3)">
                    <g transform="translate(-9.000000, -9.000000)" id="bg">
                        <rect x="0" y="0" width="467.563433" height="467.563433"></rect>
                    </g>
                </g>
            </g>
            <g id="disk-shadow">
                <mask id="mask-5" fill="white">
                    <use xlink:href="#path-4"></use>
                </mask>
                <g id="Mask"></g>
                <g opacity="0.355096726" mask="url(#mask-5)" fill="url(#linearGradient-6)" id="Combined-Shape">
                    <g transform="translate(118.000000, 113.000000)">
                        <path d="M220.425264,16.9985655 C222.30098,15.5311943 224.225731,13.9776214 226.199517,12.3378469 L503,400.410448 L438.714311,435.655832 L368.171067,486.728953 L360.420634,478.58126 L339.593466,490 L51.7278102,250.781469 C69.8113077,230.546946 82.9242172,212.093462 91.0665388,195.421019 L0.606213135,100.324015 L0.606213135,44.4840981 L30.2821291,0.45351854 C82.3570261,1.30818078 117.245186,7.20987348 134.94661,18.1585967 C137.824909,19.9388885 143.430208,24.7342689 151.762508,32.5447378 C157.897339,33.8717375 163.451797,34.8205817 168.425881,35.3912707 L156.549193,27.1664748 L211.735984,4.29771309 L220.425264,16.9985655 Z M197.116011,32.0274144 L173.344282,35.8453746 C179.273301,36.2483763 184.227801,36.0164089 188.207783,35.1494724 C190.921453,34.5583692 193.890861,33.5176837 197.116007,32.027416 Z"></path>
                    </g>
                </g>
            </g>
        </g>
        <g id="T">
            <use fill="black" fill-opacity="1" filter="url(#filter-8)" xlink:href="#path-7"></use>
            <use fill="#FFFFFF" fill-rule="evenodd" xlink:href="#path-7"></use>
        </g>
    </g>
</svg>